# xmcd
#
# Track frame offsets:
#	182
#	12087
#	22430
#	31450
#	48810
#	66255
#	78055
#	90892
#	106825
#	119915
#
# Disc length: 1755 seconds
#
# Revision: 0
# Processed by: cddbd v1.5.2PL0 Copyright (c) Steve Scherf et al.
# Submitted via: EasyCDDAExtractor 4.6.9.1
#
DISCID=7606d90a
DTITLE=Various Artist - Christmas in the West
DYEAR=1900
DGENRE=
TTITLE0=Sleigh Ride/Jingle Bells Medley
TTITLE1=Rudolph The Red-Nosed Reindeer
TTITLE2=Deck The Halls
TTITLE3=Everyday Is Christmas In The West
TTITLE4=Silent Night
TTITLE5=Jolly Old St. Nicholas/The Christmas Letter
TTITLE6=Winter Wonderland
TTITLE7=White Christmas
TTITLE8=Away In A Manger
TTITLE9=I'll Be Home For Christmas
EXTD=
EXTT0=
EXTT1=
EXTT2=
EXTT3=
EXTT4=
EXTT5=
EXTT6=
EXTT7=
EXTT8=
EXTT9=
PLAYORDER=
